<svg width="192" height="192" viewBox="0 0 192 192" fill="none" xmlns="http://www.w3.org/2000/svg">
<path d="M96.8705 176.116C86.3518 180.039 74.9861 182 62.7737 182C55.3749 182 48.0652 180.752 40.8447 178.256C33.7134 175.671 27.3397 171.971 21.7237 167.158C16.1078 162.344 11.5615 156.55 8.08501 149.775C4.69761 142.911 3.00391 135.2 3.00391 126.643C3.00391 120.581 3.98447 114.876 5.9456 109.527C7.90672 104.09 10.6256 99.0531 14.1021 94.4177C17.5786 89.7824 21.7237 85.6372 26.5374 81.9824" stroke="currentColor"/>
<path d="M89.9055 169.568C80.9478 172.908 71.2689 174.578 60.8688 174.578C54.5681 174.578 48.3432 173.515 42.1943 171.39C36.1212 169.188 30.6935 166.038 25.9109 161.939C21.1284 157.839 17.2569 152.905 14.2963 147.136C11.4116 141.29 9.96924 134.724 9.96924 127.436C9.96924 122.274 10.8043 117.416 12.4744 112.861C14.1444 108.23 16.4598 103.941 19.4204 99.9938C22.381 96.0463 25.9109 92.5164 30.0102 89.4039" stroke="currentColor"/>
<path d="M84.2507 164.252C76.5603 167.12 68.2507 168.554 59.3219 168.554C53.9125 168.554 48.5683 167.641 43.2892 165.816C38.0753 163.926 33.4154 161.221 29.3095 157.702C25.2036 154.183 21.8797 149.946 19.3379 144.993C16.8613 139.975 15.623 134.337 15.623 128.081C15.623 123.649 16.34 119.478 17.7738 115.567C19.2076 111.592 21.1954 107.91 23.7371 104.521C26.2789 101.132 29.3095 98.1009 32.8289 95.4288" stroke="currentColor"/>
<path d="M41.5134 105.248C44.8116 99.3651 50.0265 94.1057 57.1578 89.4703L107.835 141.752C102.576 146.12 96.6923 149.552 90.185 152.048C83.6776 154.455 76.5017 155.658 68.6572 155.658C64.2892 155.658 60.1441 154.945 56.2218 153.519C52.3887 152.004 49.0013 149.909 46.0596 147.234C43.2071 144.471 40.934 141.128 39.2403 137.206C37.5466 133.284 36.6997 128.871 36.6997 123.968C36.6997 117.283 38.3043 111.043 41.5134 105.248Z" stroke="currentColor"/>
<path d="M46.9939 108.335C49.7043 103.5 53.9898 99.1776 59.8502 95.3683L101.496 138.333C97.1739 141.922 92.339 144.742 86.9914 146.794C81.6437 148.772 75.7467 149.76 69.3002 149.76C65.7107 149.76 62.3043 149.174 59.081 148.002C55.9311 146.757 53.1473 145.036 50.7299 142.838C48.3857 140.567 46.5177 137.82 45.1259 134.597C43.734 131.373 43.0381 127.747 43.0381 123.718C43.0381 118.224 44.3567 113.096 46.9939 108.335Z" stroke="currentColor"/>
<path d="M51.9771 111.14C54.1532 107.259 57.5937 103.789 62.2987 100.73L95.7334 135.224C92.2635 138.105 88.3819 140.37 84.0886 142.017C79.7953 143.604 75.0609 144.398 69.8854 144.398C67.0036 144.398 64.2689 143.928 61.6811 142.987C59.1522 141.987 56.9174 140.605 54.9765 138.841C53.0946 137.017 51.5948 134.812 50.4774 132.224C49.36 129.637 48.8013 126.725 48.8013 123.491C48.8013 119.08 49.8599 114.963 51.9771 111.14Z" stroke="currentColor"/>
<path d="M105.428 26.759C104.626 24.4413 103.556 22.2573 102.219 20.2071C100.971 18.0677 99.4555 16.2402 97.6726 14.7248C95.8898 13.1203 93.7949 11.8723 91.3881 10.9809C88.9813 10.0003 86.2179 9.51001 83.0979 9.51001C79.3539 9.51001 76.0111 10.1786 73.0694 11.5157C70.1277 12.7637 67.6317 14.502 65.5815 16.7305C63.6203 18.8699 62.1049 21.4105 61.0352 24.3522C59.9655 27.2047 59.4307 30.2355 59.4307 33.4447C59.4307 36.1189 59.6981 38.704 60.2329 41.2C60.7678 43.696 61.6592 46.192 62.9072 48.6879C64.1552 51.1839 65.7598 53.7691 67.7209 56.4433C69.7711 59.0284 72.2671 61.8364 75.2088 64.8672" stroke="currentColor"/>
<path d="M102.02 28.3045C101.336 26.3302 100.425 24.4699 99.2862 22.7234C98.2231 20.901 96.9323 19.3444 95.4136 18.0535C93.8949 16.6867 92.1105 15.6237 90.0603 14.8643C88.0101 14.0291 85.6562 13.6115 82.9986 13.6115C79.8094 13.6115 76.9619 14.1809 74.4561 15.3199C71.9503 16.383 69.8242 17.8637 68.0777 19.762C66.4072 21.5844 65.1164 23.7485 64.2052 26.2543C63.294 28.6841 62.8384 31.2659 62.8384 33.9994C62.8384 36.2774 63.0662 38.4795 63.5218 40.6056C63.9774 42.7317 64.7367 44.8578 65.7998 46.984C66.8628 49.1101 68.2296 51.3121 69.9001 53.5901C71.6466 55.7922 73.7727 58.1841 76.2785 60.7658" stroke="currentColor"/>
<path d="M98.8983 29.7201C98.3238 28.0605 97.5578 26.4965 96.6003 25.0284C95.7067 23.4964 94.6215 22.1878 93.3448 21.1026C92.0682 19.9537 90.5681 19.06 88.8446 18.4217C87.1211 17.7195 85.1423 17.3684 82.9081 17.3684C80.2271 17.3684 77.8334 17.8472 75.7269 18.8047C73.6204 19.6983 71.8331 20.9431 70.3649 22.5389C68.9606 24.0709 67.8754 25.8901 67.1094 27.9966C66.3434 30.0393 65.9604 32.2096 65.9604 34.5076C65.9604 36.4226 66.1519 38.2737 66.5349 40.0611C66.9179 41.8484 67.5563 43.6357 68.4499 45.423C69.3436 47.2104 70.4926 49.0615 71.8969 50.9765C73.3651 52.8277 75.1524 54.8384 77.2589 57.0088" stroke="currentColor"/>
<path d="M186.367 179.86L145.852 137.874C152.003 128.871 156.727 119.021 160.026 108.324C163.324 97.6268 165.018 86.3949 165.107 74.6282" stroke="currentColor"/>
<path d="M187.586 175.524L151.122 137.736C156.658 129.633 160.91 120.768 163.878 111.141C166.847 101.514 168.371 91.4048 168.451 80.8147" stroke="currentColor"/>
<path d="M188.826 171.676L156.009 137.667C160.991 130.375 164.818 122.396 167.489 113.731C170.161 105.067 171.533 95.9689 171.605 86.4379" stroke="currentColor"/>
</svg>
